<?xml version="1.0" encoding="UTF-8"?>
<svg width="10px" height="14px" viewBox="0 0 10 14" version="1.1" xmlns="http://www.w3.org/2000/svg" xmlns:xlink="http://www.w3.org/1999/xlink">
    <!-- Generator: Sketch 48.2 (47327) - http://www.bohemiancoding.com/sketch -->
    <title>trashcan</title>
    <desc>Created with Sketch.</desc>
    <defs></defs>
    <g id="Step-4" stroke="none" stroke-width="1" fill="none" fill-rule="evenodd" transform="translate(-1300.000000, -237.000000)">
        <g id="Edit-Order" transform="translate(950.000000, 154.000000)" fill="#009DCD">
            <g id="Order-Preivew" transform="translate(20.000000, 59.000000)">
                <path d="M338.811364,28.7189153 L331.184178,28.7189153 C330.828833,28.7189153 330.549906,29.0337302 330.579837,29.4007937 L331.227482,37.4550265 C331.252318,37.7632275 331.500041,38 331.797435,38 L338.19747,38 C338.494865,38 338.743224,37.7632275 338.76806,37.4550265 L339.415706,29.4007937 C339.444999,29.0337302 339.166073,28.7189153 338.811364,28.7189153 L338.811364,28.7189153 Z M330.574105,27.619709 C330.182461,27.619709 329.91436,27.244709 330.025167,26.853836 L330.296452,25.7903439 C330.35886,25.5747354 330.518065,25.4338624 330.735857,25.3895503 C330.95365,25.3445767 332.632305,25.1884921 333.03987,25.1626984 C333.224548,25.1527778 333.338538,24.9933862 333.367195,24.8994709 C333.396489,24.8055556 333.587535,24.3703704 333.70662,24.212963 C333.761386,24.1415344 334.002741,24 334.997453,24 C335.992801,24 336.239251,24.1415344 336.29338,24.212963 C336.412465,24.3703704 336.603511,24.8055556 336.632805,24.8994709 C336.661462,24.9933862 336.776089,25.1527778 336.96013,25.1626984 C337.367695,25.1884921 339.04635,25.3445767 339.264143,25.3895503 C339.482572,25.4338624 339.641777,25.5747354 339.704185,25.7903439 L339.974833,26.853836 C340.08564,27.244709 339.817539,27.619709 339.425895,27.619709 L330.574105,27.619709 L330.574105,27.619709 Z" id="trashcan"></path>
            </g>
        </g>
    </g>
</svg>